<svg width="811" height="153" viewBox="0 0 811 153" fill="none" xmlns="http://www.w3.org/2000/svg">
<path d="M192.239 105.588V58.9351L180.564 47.2719H198.077L227.263 76.43L256.45 47.2719H273.962L262.288 58.9351V105.588H250.613V70.5984L233.101 88.0933V105.588H221.426V88.0933L203.914 70.5984V105.588H192.239Z" fill="black"/>
<path d="M314.824 105.588V88.0933L285.637 58.9351V47.2719H297.312V53.1035L320.661 76.43L344.011 53.1035V47.2719H355.685V58.9351L326.499 88.0933V105.588H314.824Z" fill="black"/>
<path d="M379.035 105.588C375.751 105.588 372.985 104.464 370.735 102.217C368.485 99.9084 367.36 97.1445 367.36 93.9249V70.5984H379.035V88.0933C379.035 89.7334 379.582 91.1306 380.677 92.2848C381.832 93.3782 383.231 93.9249 384.872 93.9249H437.409C437.409 97.2052 436.253 99.9692 433.943 102.217C431.632 104.464 428.896 105.588 425.734 105.588H379.035ZM367.36 58.9351V47.2719H437.409C437.409 50.5521 436.253 53.3161 433.943 55.5637C431.632 57.8113 428.896 58.9351 425.734 58.9351H367.36Z" fill="black"/>
<path d="M460.758 105.588C457.475 105.588 454.708 104.464 452.458 102.217C450.208 99.9084 449.083 97.1445 449.083 93.9249H519.132C519.132 97.2052 517.976 99.9692 515.666 102.217C513.355 104.464 510.619 105.588 507.457 105.588H460.758ZM460.758 82.2616C457.475 82.2616 454.708 81.1378 452.458 78.8902C450.208 76.5819 449.083 73.8179 449.083 70.5984H519.132C519.132 73.8787 517.976 76.6426 515.666 78.8902C513.355 81.1378 510.619 82.2616 507.457 82.2616H460.758ZM460.758 58.9351C457.475 58.9351 454.708 57.8113 452.458 55.5637C450.208 53.2553 449.083 50.4914 449.083 47.2719H519.132C519.132 50.5521 517.976 53.3161 515.666 55.5637C513.355 57.8113 510.619 58.9351 507.457 58.9351H460.758Z" fill="black"/>
<path d="M530.807 105.588V47.2719H542.481V93.9249H600.855C600.855 97.2052 599.7 99.9692 597.389 102.217C595.078 104.464 592.342 105.588 589.18 105.588H530.807Z" fill="black"/>
<path d="M612.53 105.588V47.2719H624.204V105.588H612.53Z" fill="black"/>
<path d="M647.554 105.588C644.27 105.588 641.504 104.464 639.254 102.217C637.004 99.9084 635.879 97.1445 635.879 93.9249H705.928C705.928 97.2052 704.772 99.9692 702.462 102.217C700.151 104.464 697.415 105.588 694.253 105.588H647.554ZM635.879 82.2616V47.2719H647.554V82.2616H635.879ZM694.253 82.2616V47.2719H705.928V82.2616H694.253Z" fill="black"/>
<path d="M729.277 105.588V58.9351L717.602 47.2719H735.114L764.301 76.43L793.488 47.2719H811L799.325 58.9351V105.588H787.651V70.5984L770.139 88.0933V105.588H758.464V88.0933L740.952 70.5984V105.588H729.277Z" fill="black"/>
<path d="M76.209 0C118.298 2.56739e-05 152.418 34.12 152.418 76.209C152.418 118.298 118.298 152.418 76.209 152.418C34.12 152.418 5.29828e-05 118.298 0 76.209C0 34.12 34.12 0 76.209 0ZM76.209 1.76758C35.0959 1.76758 1.76758 35.096 1.76758 76.209C1.76763 117.322 35.096 150.65 76.209 150.65C117.322 150.65 150.65 117.322 150.65 76.209C150.65 35.096 117.322 1.7676 76.209 1.76758ZM55.9863 137.195C62.1284 139.218 68.5438 140.289 75.0098 140.373L74.9043 147.533L75.9814 147.56V149.325C66.4077 149.33 56.9267 147.449 48.0801 143.79L48.7637 142.139C56.2561 145.222 64.2175 147.013 72.3086 147.436L72.582 142.1L70.4014 141.936L69.3105 141.852L66.0527 141.441L63.8984 141.062L62.8213 140.867C62.4637 140.797 62.11 140.708 61.7568 140.629L59.624 140.135L57.5186 139.543L56.4678 139.243L55.4307 138.895L55.9863 137.195ZM75.9951 3.53418C85.565 3.54088 95.0404 5.42746 103.883 9.08691C112.725 12.7555 120.76 18.1269 127.529 24.8945C134.307 31.668 139.685 39.7088 143.356 48.5586L143.341 48.5645C146.989 57.4034 148.867 66.8726 148.866 76.4346H148.884C148.882 86.0118 146.996 95.4951 143.334 104.345L143.333 104.344C139.664 113.181 134.295 121.212 127.529 127.979C120.754 134.738 112.716 140.1 103.874 143.762L103.883 143.781C95.0405 147.439 85.5643 149.32 75.9951 149.316V147.551C84.0965 147.541 92.1377 146.159 99.7773 143.463L97.958 138.413L95.8877 139.11C95.1946 139.349 94.4881 139.521 93.7861 139.729C92.3911 140.157 90.961 140.444 89.5439 140.784C86.6866 141.377 83.7927 141.78 80.8818 141.989L80.749 140.224C82.3648 140.144 83.9634 139.901 85.5615 139.702C86.3605 139.552 87.1463 139.384 87.9453 139.261C88.7444 139.137 89.5306 138.947 90.3164 138.762C91.9011 138.435 93.4374 137.968 94.9912 137.526C96.5143 137.001 98.0556 136.519 99.5479 135.893L102.196 142.536L103.188 142.143L103.177 142.117C110.655 139.003 117.551 134.645 123.573 129.228L119.984 125.255C118.876 126.204 117.798 127.184 116.633 128.066C116.05 128.508 115.499 128.976 114.898 129.391L113.132 130.657C110.734 132.308 108.226 133.795 105.627 135.107L104.819 133.514L105.896 132.962C106.258 132.781 106.616 132.596 106.965 132.384L109.062 131.179C110.421 130.309 111.799 129.47 113.097 128.508C115.731 126.645 118.216 124.579 120.527 122.328L125.485 127.457L126.267 126.711C131.981 120.974 136.694 114.319 140.208 107.024L135.353 104.716C135.044 105.374 134.694 106.018 134.367 106.667L133.869 107.643C133.701 107.965 133.507 108.273 133.33 108.591L132.227 110.489L130.456 113.253L129.82 114.136C129.397 114.718 128.985 115.319 128.544 115.901C127.635 117.044 126.77 118.219 125.79 119.3L124.435 118.135C128.659 113.241 132.117 107.734 134.689 101.803L141.246 104.641C141.328 104.477 141.406 104.313 141.479 104.147L141.688 103.647C144.768 96.1601 146.558 88.2053 146.98 80.1201L141.63 79.8467L141.462 82.0273L141.383 83.1172L141.246 84.2031L140.968 86.375L140.398 89.6064C140.323 89.9639 140.235 90.3169 140.155 90.6699L139.665 92.8018L139.069 94.9072L138.787 95.9443L138.438 96.9824L136.743 96.4258C138.762 90.2836 139.833 83.8699 139.922 77.4053L147.069 77.5107L147.095 76.4697H147.078C147.067 68.3691 145.683 60.3288 142.985 52.6904L137.935 54.4824L138.637 56.5527C138.871 57.2458 139.043 57.9524 139.25 58.6543C139.683 60.049 139.97 61.4788 140.306 62.8955C140.9 65.7524 141.305 68.6462 141.516 71.5566L139.749 71.6885C139.67 70.0732 139.427 68.4756 139.229 66.8779C139.1 66.079 138.932 65.293 138.809 64.4941C138.685 63.6952 138.491 62.9088 138.31 62.123C137.983 60.5386 137.511 59.0027 137.069 57.4492C136.548 55.9264 136.063 54.3811 135.44 52.8936L142.085 50.2451L141.688 49.2432L141.702 49.2363C138.585 41.7628 134.226 34.8699 128.81 28.8496L124.836 32.4385C125.785 33.5464 126.761 34.6238 127.644 35.7891C128.085 36.3716 128.557 36.9232 128.968 37.5234L130.239 39.2891C131.88 41.6944 133.359 44.2073 134.663 46.8105L133.065 47.6182L132.514 46.542C132.333 46.1801 132.147 45.8223 131.939 45.4736L130.734 43.377C129.865 42.0174 129.021 40.6396 128.059 39.3418C126.197 36.7072 124.13 34.2233 121.878 31.9131L127.008 26.9297L126.267 26.1572C120.527 20.4496 113.871 15.7431 106.576 12.2344L104.268 17.0898C104.93 17.3988 105.569 17.7477 106.223 18.0742L107.194 18.5732C107.521 18.741 107.83 18.9358 108.147 19.1123L110.046 20.2021L111.888 21.3809L112.806 21.9727L113.688 22.6084C114.267 23.0321 114.871 23.4425 115.454 23.8838C116.593 24.793 117.772 25.6579 118.854 26.6377L117.684 27.9932C112.79 23.7671 107.282 20.3096 101.349 17.7393L104.188 11.1797C103.865 11.0076 103.535 10.8662 103.199 10.7383C95.7054 7.65507 87.7428 5.86414 79.6504 5.44141L79.3809 10.791L81.5615 10.959L82.6523 11.0381L83.7383 11.1533L85.9062 11.4316L89.1377 12.001C89.4952 12.076 89.8485 12.1637 90.2061 12.2432L92.3379 12.7334L94.4443 13.3291L95.4951 13.6299L96.5322 13.9785L95.9717 15.6729C89.8287 13.6541 83.4139 12.5828 76.9482 12.4951L77.0547 5.34863L75.9814 5.32227V5.30469C67.8828 5.31725 59.8448 6.70074 52.208 9.39648L54 14.4463L56.0752 13.7441C56.7638 13.5103 57.4745 13.3383 58.1719 13.1309C59.5669 12.6983 60.9974 12.4116 62.4189 12.0762C65.2746 11.4816 68.1668 11.077 71.0762 10.8662L71.209 12.6318C69.5976 12.7113 67.9991 12.9547 66.3965 13.1533C65.602 13.3034 64.8072 13.4712 64.0127 13.5947C63.2181 13.7183 62.4322 13.9118 61.6465 14.0928C60.0616 14.4194 58.5247 14.8916 56.9707 15.333C55.4433 15.8538 53.9027 16.3396 52.415 16.9619L49.7666 10.3408L48.8037 10.7217L48.8086 10.7334C41.3304 13.8517 34.4326 18.2117 28.4072 23.6279L31.9961 27.6006C33.1042 26.6516 34.1817 25.6758 35.3516 24.793C35.9299 24.3516 36.4821 23.8793 37.0869 23.4688L38.8525 22.1973C41.253 20.5498 43.7601 19.0635 46.3574 17.748L47.1748 19.3457L46.0977 19.8975C45.7356 20.0784 45.3776 20.2642 45.0332 20.4717L42.9189 21.6895C41.5592 22.559 40.1817 23.4029 38.8838 24.3652C36.247 26.2248 33.7619 28.2911 31.4531 30.5449L26.4912 25.415L25.6963 26.1572C19.977 31.8944 15.2617 38.5507 11.7461 45.8486L16.6016 48.1572C16.915 47.4951 17.2641 46.8545 17.5908 46.2012L18.0898 45.2305C18.2575 44.904 18.447 44.595 18.6279 44.2773L19.7188 42.3789L20.9023 40.5293L21.4932 39.6113L22.1289 38.7285C22.5527 38.1503 22.959 37.5455 23.4004 36.9629C24.3054 35.824 25.1669 34.6455 26.1514 33.5508L27.5068 34.7598C23.2814 39.6528 19.8241 45.1605 17.2549 51.0928L10.6953 48.2539C10.5452 48.5761 10.399 48.9077 10.2754 49.2432L10.2461 49.2305C7.16737 56.7145 5.38022 64.6665 4.95996 72.748L10.3154 73.0176L10.4785 70.8369L10.5625 69.7471L10.6992 68.7002L10.9727 66.5332L11.3525 64.3789L11.5469 63.3018C11.6175 62.9443 11.7057 62.5909 11.7852 62.2334L12.2803 60.1016L12.8711 57.9961L13.1719 56.9453L13.5117 55.8867L15.2109 56.4473C13.1876 62.5882 12.1156 69.0028 12.0322 75.4678L4.88477 75.3613L4.8584 76.4346C4.87235 84.5321 6.25739 92.569 8.95508 100.204L14.0234 98.4121L13.3262 96.3379C13.0878 95.6494 12.9155 94.9386 12.708 94.2412C12.2798 92.8463 11.9933 91.4155 11.6533 89.9941C11.0601 87.1387 10.6566 84.2467 10.4473 81.3379L12.2139 81.2061C12.2933 82.8172 12.5313 84.4153 12.7344 86.0176C12.8624 86.8121 13.0307 87.6069 13.1543 88.4014C13.2779 89.1957 13.4675 89.9811 13.6484 90.7666C13.9795 92.3512 14.4472 93.8877 14.8887 95.4414C15.414 96.9687 15.8956 98.5095 16.5225 99.9971L9.87793 102.646L10.2666 103.625L10.3105 103.607C13.4261 111.085 17.785 117.982 23.2021 124.006L27.1758 120.417C26.2267 119.309 25.2462 118.232 24.3633 117.062C23.9218 116.484 23.454 115.932 23.0391 115.327L21.7715 113.562C20.1222 111.162 18.6353 108.655 17.3213 106.058L18.915 105.25L19.4668 106.327C19.6478 106.689 19.834 107.046 20.0459 107.391L21.251 109.487C22.0985 110.847 22.9371 112.224 23.8994 113.521C25.7606 116.157 27.8272 118.642 30.0801 120.951L24.9502 125.935L25.6963 126.711C31.4347 132.425 38.0922 137.136 45.3906 140.646L47.7002 135.791C47.0424 135.482 46.3979 135.133 45.749 134.807L44.7734 134.309C44.4512 134.141 44.142 133.95 43.8242 133.77L41.9258 132.68L40.0801 131.501L39.1621 130.909L38.2783 130.273C37.6957 129.85 37.0953 129.443 36.5127 129.002C35.3693 128.093 34.1948 127.228 33.1133 126.248L34.2744 124.88C39.1706 129.101 44.6783 132.556 50.6094 135.129L47.7705 141.688C48.0971 141.861 48.4238 142.006 48.7637 142.13L48.0801 143.781C39.238 140.113 31.2022 134.743 24.4297 127.979C17.6775 121.198 12.3218 113.157 8.66797 104.313L8.62402 104.332C4.96555 95.4865 3.08636 86.0066 3.09277 76.4346C3.08921 66.8698 4.96834 57.3974 8.62402 48.5586C12.2906 39.7112 17.6614 31.6709 24.4297 24.8945C31.2036 18.1303 39.2409 12.7629 48.085 9.09863L48.0801 9.08691C56.9267 5.42571 66.407 3.53909 75.9814 3.53418H75.9951ZM133.432 100.227C130.706 106.759 126.897 112.785 122.165 118.051L126.139 121.644C127.114 120.505 128.125 119.397 129.025 118.201C129.467 117.605 129.971 117.036 130.395 116.436L131.696 114.607C133.391 112.135 134.918 109.552 136.266 106.874L137.864 107.682L137.264 108.848C137.069 109.24 136.867 109.629 136.642 110.004L135.316 112.277C134.376 113.751 133.458 115.243 132.421 116.651C130.398 119.507 128.154 122.199 125.71 124.703L120.603 119.706L119.944 120.395C114.926 125.386 109.106 129.502 102.727 132.569L105.035 137.425C105.715 137.107 106.36 136.749 107.044 136.409L108.042 135.897C108.373 135.725 108.696 135.531 109.022 135.346L110.969 134.225L112.863 133.015L113.804 132.405L114.722 131.757C115.331 131.315 115.949 130.874 116.545 130.433C117.719 129.497 118.925 128.61 120.037 127.604L121.202 128.958C118.559 131.25 115.74 133.332 112.771 135.183C112.047 135.668 111.283 136.096 110.523 136.533C109.764 136.97 109.013 137.416 108.228 137.8C107.442 138.184 106.673 138.603 105.888 138.987L103.495 140.068L100.66 133.505C100.378 133.639 100.091 133.764 99.792 133.873L99.7949 133.88C93.2496 136.575 86.2953 138.144 79.2266 138.52L79.5 143.878L81.7383 143.706L82.8594 143.622L86.2061 143.198L88.4141 142.806L89.5215 142.611C89.8878 142.532 90.2499 142.443 90.6162 142.359L92.8242 141.856L94.9873 141.247L96.0693 140.938L97.1328 140.581L97.6895 142.28C91.0324 144.471 84.0799 145.633 77.0723 145.728L76.9531 138.577L75.999 138.604V136.815C83.9221 136.816 91.7679 135.259 99.0908 132.235L99.0889 132.229C106.414 129.188 113.071 124.738 118.682 119.132C124.288 113.522 128.738 106.866 131.78 99.542L133.432 100.227ZM52.874 132.229C60.2027 135.258 68.0562 136.816 75.9863 136.815V138.607C72.4504 138.59 68.9213 138.286 65.4346 137.698C61.951 137.124 58.526 136.237 55.2012 135.05L53.4219 140.086L55.5498 140.806C56.2561 141.048 56.9889 141.226 57.7041 141.438C59.1387 141.879 60.6087 142.174 62.0654 142.519C64.9997 143.13 67.9723 143.544 70.9619 143.759L70.8291 145.524C69.0853 145.427 67.3502 145.181 65.6152 144.96C64.7325 144.823 63.8939 144.66 63.0332 144.519C62.1723 144.377 61.315 144.174 60.4629 143.976C58.7501 143.618 57.077 143.093 55.3906 142.651C53.7351 142.086 52.066 141.557 50.4502 140.886L53.0732 134.229L52.1895 133.88L52.874 132.229ZM33.2764 119.132C38.8885 124.736 45.5458 129.186 52.8701 132.229L52.1855 133.88C45.6507 131.154 39.6234 127.344 34.3584 122.61L30.7646 126.583C31.9037 127.559 33.0116 128.566 34.208 129.471C34.804 129.912 35.3742 130.415 35.9746 130.839L37.8018 132.141C40.2755 133.834 42.86 135.361 45.5371 136.71L44.7285 138.303L43.5811 137.725C43.1881 137.526 42.7991 137.323 42.4238 137.098L40.1504 135.773C38.6759 134.838 37.1836 133.92 35.7754 132.878C32.9208 130.856 30.2282 128.614 27.7227 126.173L32.7031 121.053L32.0137 120.395L33.2764 119.132ZM75.9883 17.5771C108.439 17.5773 134.746 43.8839 134.746 76.335C134.746 108.786 108.439 135.093 75.9883 135.093C43.537 135.093 17.2295 108.786 17.2295 76.335C17.2296 43.8838 43.5371 17.5771 75.9883 17.5771ZM75.9883 19.3438C44.513 19.3438 18.9971 44.8598 18.9971 76.335C18.9971 107.81 44.513 133.326 75.9883 133.326C107.463 133.326 132.979 107.81 132.979 76.335C132.979 44.8599 107.463 19.3439 75.9883 19.3438ZM15.5908 76.4521C15.5923 84.3682 17.148 92.2069 20.1699 99.5234L20.1777 99.5205C23.2214 106.844 27.6716 113.499 33.2764 119.11L32.0137 120.373C27.0216 115.355 22.9062 109.535 19.8379 103.157L15.0127 105.501C15.3306 106.176 15.6884 106.826 16.0283 107.506L16.54 108.508C16.7122 108.839 16.9064 109.157 17.0918 109.483L18.2129 111.43L19.4277 113.306L20.0371 114.25L20.6855 115.164C21.127 115.773 21.5684 116.391 22.0098 116.991C22.9457 118.161 23.8333 119.371 24.8398 120.479L23.4844 121.648C21.1794 119.006 19.0847 116.187 17.2197 113.218C16.7341 112.489 16.3062 111.725 15.8691 110.966C15.4321 110.207 14.9856 109.461 14.6016 108.671C14.2175 107.881 13.7981 107.117 13.4141 106.331L12.333 103.943L18.9023 101.087C18.7655 100.8 18.6367 100.509 18.5264 100.204L18.5342 100.2C15.8451 93.6634 14.2793 86.7195 13.9043 79.6611L8.54492 79.9346L8.7168 82.1768L8.80078 83.2979L9.22461 86.6396L9.61816 88.8467L9.81152 89.9551C9.88657 90.3214 9.97961 90.6879 10.0635 91.0498L10.5664 93.2568L11.1758 95.4199L11.4854 96.501L11.8428 97.5645L10.1426 98.125C7.95208 91.4691 6.79 84.5181 6.69531 77.5117L13.8291 77.4053L13.8027 76.4521H15.5908ZM128.5 31.2246C130.795 33.8666 132.878 36.6854 134.729 39.6553C135.215 40.3792 135.639 41.1431 136.076 41.9023C136.513 42.6615 136.959 43.4117 137.348 44.1973C137.736 44.983 138.151 45.7514 138.535 46.5371L139.617 48.9297L133.061 51.7676C133.192 52.0531 133.32 52.3435 133.43 52.6465H133.432C136.129 59.1907 137.699 66.144 138.076 73.2119L143.432 72.9385L143.264 70.7002L143.175 69.5791L143.038 68.4619L142.756 66.2334L142.363 64.0264L142.164 62.918C142.089 62.5516 142.001 62.1896 141.917 61.8232L141.409 59.6162L140.495 56.3721L140.134 55.3076L141.833 54.752C144.023 61.4084 145.187 68.3596 145.285 75.3662L138.134 75.4854L138.16 76.4385H138.151C138.131 79.9652 137.825 83.4845 137.237 86.9619C136.663 90.4451 135.776 93.8699 134.588 97.1943L139.647 98.9863L140.367 96.8584C140.606 96.1521 140.787 95.4192 140.999 94.7041C141.44 93.2696 141.736 91.7993 142.08 90.3428C142.689 87.4087 143.105 84.4371 143.321 81.4482L145.087 81.5811C144.99 83.3246 144.738 85.0593 144.521 86.7939C144.385 87.6768 144.217 88.5162 144.08 89.377C143.943 90.2375 143.741 91.0936 143.542 91.9453C143.184 93.658 142.659 95.3314 142.195 97.0176C141.63 98.6729 141.104 100.341 140.429 101.957L133.771 99.3213L133.423 100.204L131.771 99.5205C134.802 92.1931 136.362 84.3412 136.363 76.4121H136.372C136.368 68.4944 134.807 60.6548 131.781 53.3379L131.78 53.3389C128.74 46.0138 124.29 39.3575 118.682 33.749L119.944 32.4824C124.935 37.5022 129.052 43.3205 132.125 49.6973L136.981 47.3887C136.664 46.709 136.305 46.065 135.97 45.3809L135.458 44.3828C135.286 44.0519 135.087 43.7298 134.906 43.4033L133.771 41.4561L132.558 39.5625L131.948 38.6221L131.299 37.7041C130.857 37.0951 130.438 36.4766 129.975 35.8809C129.043 34.7068 128.151 33.5019 127.145 32.3896L128.5 31.2246ZM31.3477 33.167L32.0049 32.4736L33.2676 33.7402C27.6643 39.3504 23.2167 46.0059 20.1777 53.3291L20.1914 53.335C17.1627 60.6611 15.6042 68.5111 15.6045 76.4385H13.8027C13.8203 72.9047 14.1242 69.3781 14.7119 65.8936C15.2859 62.409 16.173 58.9829 17.3613 55.6572L12.3193 53.8555L11.5996 55.9834C11.3568 56.6939 11.1586 57.4222 10.9688 58.1416C10.5273 59.5717 10.2316 61.0419 9.88281 62.5029C9.27458 65.4371 8.86144 68.4086 8.64648 71.3975L6.88086 71.2656C6.97799 69.5 7.22457 67.7865 7.44531 66.0518C7.58214 65.1692 7.74548 64.3263 7.88672 63.4658C8.02799 62.6051 8.23102 61.7523 8.42969 60.9004C8.78728 59.1834 9.31343 57.5108 9.75488 55.8291C10.32 54.1738 10.8451 52.5052 11.5205 50.8896L18.1914 53.5293L18.54 52.6465L20.0049 53.2568L18.5449 52.6416C21.2655 46.1091 25.0698 40.0828 29.7979 34.8174L25.8242 31.2285C24.8487 32.3628 23.8425 33.4709 22.9375 34.667C22.4961 35.2628 21.9922 35.8324 21.5684 36.4326L20.2441 38.2646C18.5506 40.7365 17.0241 43.3189 15.6748 45.9941L14.0811 45.1904L14.6768 44.0215C14.8754 43.6331 15.0786 43.2443 15.3037 42.8691L16.6289 40.5908C17.5647 39.1168 18.4827 37.6251 19.5244 36.2217C21.5436 33.3731 23.7829 30.6864 26.2217 28.1875L31.3477 33.167ZM75.0098 14.292L75.9639 14.2656V16.0312C68.039 16.0323 60.1914 17.5895 52.8672 20.6152L52.8789 20.6436C45.5505 23.6842 38.8899 28.1338 33.2764 33.7402L32.0137 32.4736C37.0348 27.4851 42.8551 23.3708 49.2324 20.2998L46.9189 15.4434C46.2435 15.7612 45.5939 16.1196 44.9141 16.4551L43.9121 16.9668C43.581 17.1389 43.2632 17.3376 42.9365 17.5186L40.9893 18.6396L39.1045 19.8672L38.1592 20.4805L37.2461 21.1289C36.6369 21.5703 36.0183 22.0118 35.418 22.4531C34.248 23.3845 33.0383 24.2768 31.9258 25.2832L30.7607 23.9277C33.4039 21.6341 36.2229 19.5512 39.1924 17.6992C39.9208 17.2137 40.685 16.7905 41.4443 16.3535C42.2037 15.9165 42.95 15.4705 43.7402 15.082C44.5304 14.6936 45.2895 14.2785 46.0752 13.8945L48.4678 12.8037L51.3115 19.3633C51.5969 19.2316 51.8823 19.1041 52.1895 18.9941L52.1855 18.9844C58.7312 16.2908 65.6854 14.7228 72.7539 14.3486L72.4805 8.99512L70.2373 9.16211L69.1162 9.25098L68.0039 9.3877L65.7832 9.66992L63.5762 10.0625L62.4717 10.2617C62.1054 10.3367 61.7388 10.4249 61.377 10.5088L59.1611 11.0381L55.916 11.9521L54.8516 12.3145L54.3047 10.5967C60.9616 8.40497 67.914 7.24163 74.9219 7.14551L75.0098 14.292ZM81.1465 7.36621C82.9123 7.46332 84.6254 7.70997 86.3604 7.93066C87.2433 8.0675 88.0873 8.23523 88.9482 8.37207C89.809 8.50891 90.6608 8.71253 91.5127 8.91113C93.2255 9.26864 94.9031 9.79338 96.585 10.2568C98.2404 10.8218 99.9097 11.3472 101.525 12.0225L98.8945 18.6445L99.7734 18.9912L99.7773 18.9844C106.311 21.71 112.338 25.5182 117.604 30.249L121.193 26.2764C120.059 25.3009 118.951 24.2901 117.75 23.3896C117.158 22.9482 116.589 22.4443 115.984 22.0205L114.152 20.6963C111.673 19.0081 109.083 17.4898 106.399 16.1504L107.212 14.5693L108.382 15.1699C108.77 15.3641 109.159 15.5678 109.534 15.793L111.808 17.1172C113.287 18.0574 114.779 18.9754 116.183 20.0127C119.039 22.0338 121.732 24.2769 124.235 26.7217L119.256 31.8203L119.944 32.4736L118.682 33.7402C113.248 28.3082 106.83 23.9623 99.7734 20.9326L99.0889 20.6436L98.4004 20.3643C91.271 17.5181 83.6627 16.0538 75.9814 16.0527V14.2871C79.5169 14.2986 83.046 14.5967 86.5332 15.1787C90.0178 15.7546 93.4439 16.641 96.7705 17.8271L98.5586 12.8037L96.4307 12.085C95.72 11.8466 94.9919 11.6429 94.2725 11.4531C92.8421 11.0117 91.3715 10.7164 89.9102 10.3721C86.976 9.76033 84.0042 9.34606 81.0146 9.13184L81.1465 7.36621Z" fill="black"/>
<path d="M111.614 58.4615L101.529 49.1605H83.5133H66.7228L93.4268 75.936L66.0946 103.341H101.529L112.242 90.9554V103.341V114.682L37.8203 114.681L76.4621 75.936L38.4482 37.8201H111.614V58.4615Z" fill="black"/>
</svg>
